<svg version="1.2" xmlns="http://www.w3.org/2000/svg" viewBox="0 0 3473 3587" width="3473" height="3587">
	<title>Logo_US_Montauban-svg</title>
	<style>
		.s0 { fill: #000000 } 
		.s1 { fill: #48ad61 } 
		.s2 { fill: #208845 } 
		.s3 { fill: #1c6b36 } 
		.s4 { fill: #ffffff } 
	</style>
	<g id="Layer_x0020_1">
		<path id="Layer" class="s0" d="m126 15.5c-118.5 423.5-593 2555.5 1611.5 3572 1380-636 1710.5-1709 1735.5-2527v-207.5c-11.5-392.5-85.5-702.5-123.5-838h-3223.5z"/>
		<path id="Layer" class="s1" d="m2326.5 2164.5c-24 11-67 39-127.5 41v106l726.5-43.5-2-103.5h-11c-52-2-68 14-83 1-51.5-31-114.5-138.5-188.5-384.5-68-251.5-131-555-185-1030.5 0-34.5 17.5-58.5 47.5-71.5l26-11 50-4.5v-104l-452-43.5-441 1222-441-1222-452 43.5v104l49.5 4.5 26 11c30 13 47.5 37 47.5 71.5-54 475.5-117 779-184.5 1030.5-74 246-137.5 354-188.5 384.5-15 13-31-3-83-1h-11l-2 103.5 726.5 43.5v-106c-60.5-2-104-30.5-127.5-41-41-19.5-82.5-64-82.5-96.5-20.5-293 55.5-627 182-1408.5l540.5 1464 540.5-1464c127 781.5 202.5 1115.5 182 1408.5 0 32.5-41.5 77-82.5 96.5z"/>
		<path id="Layer" class="s2" d="m2866 1232.5l-65-376-184 28c36.5 97.5-50 117-261.5 62.5-233.5-54-508-80-821.5-80-201 0-391.5 13-568.5 39-177.5 26-320 60.5-432.5 108-108 47.5-166.5 99.5-171 155.5 0 106 88.5 184 268 233.5 181.5 52 402 88.5 657.5 108.5l754.5 62.5c244.5 21.5 380.5 52 406.5 95 4.5 6.5 8.5 21.5 8.5 41 0 52-60.5 91-179.5 123.5-121 30-268 47.5-445.5 47.5-235.5-2-469-32.5-700.5-86.5-229-56-411-140.5-547-255l-222.5 21.5 37 402 164.5-19.5c-6.5-123.5 99.5-153.5 322-88.5q447.8 97.5 940.5 97.5c210 0 402-13 577.5-39 177.5-26 320-60.5 424-106 108-45.5 168.5-93 179.5-147 4.5-8.5 4.5-21.5 4.5-39 0-93-78-164.5-233.5-214-158-52-329-86.5-514.5-104-197-19.5-430.5-39-700.5-54-281-17.5-452-34.5-510.5-52-108-30-166.5-65-175-104 4.5-43 67-78 188-108 125.5-28 272.5-43 443-43 134 0 270.5 10.5 415 32.5 136 19.5 270.5 54 400 99.5 127.5 49.5 233.5 108 320 179.5z"/>
		<path id="Layer" class="s3" d="m1767.5 283v106c22 9 39.5 20.5 52.5 34 21.5 23 32.5 55 32.5 95.5l43.5 1553.5c0 80.5-28 146-117.5 184.5-27.5 12-47.5 17.5-92 20-44.5-2.5-64.5-8.5-92-20-89-38.5-117.5-104-117.5-184.5l43.5-1553.5c0-41 11-73 32.5-95.5 13-14 30.5-25 52.5-34v-106l-412.5 21.5v89c35 7 43-5 66.5 7.5 51.5 27 77 73 77 138l-43 1555c0 73.5 28 179.5 120 241 68.5 45.5 140.5 65.5 273 71 132.5-6 204.5-25.5 273-71 92-61.5 120-167.5 120-241l-43.5-1555c0-65 25.5-111.5 77-138 23.5-12.5 31.5-0.5 66.5-7.5v-89l-412.5-21.5z"/>
		<path id="Layer" class="s4" d="m1521 2829.5l126.5 188.5c21 31.5 36 51 45 57.5 9 6.5 19.5 11 31.5 12v12h-225v-12c18-1.5 29.5-4 34.5-8 5-4 8-9 8-15 0-4-0.5-7.5-2.5-11-3-7-11-19.5-24-38l-67-98.5-70 85c-21 26-31.5 44-31.5 53 0 6.5 3 12.5 8 18.5q8.3 8.3 24 12c4.5 1.5 14.5 2 29 2v12h-177v-12c20-3 36-8.5 47.5-16.5 15-10.5 36.5-32.5 63.5-65.5l91.5-110.5-117-172.5c-19-28.5-30-44-33-47.5-6-7.5-12-13-18-16-6-3-14-5.5-24.5-7v-12.5h228.5v12.5h-11.5c-13 0-22.5 2-27.5 6.5-5.5 4-8 9.5-8 15.5 0 5 1 9.5 2.5 13l23.5 35.5 57.5 85.5 47.5-57.5q37.5-45.8 37.5-64.5c0-6-1.5-11.5-5.5-17-3.5-5-8.5-9.5-15-12-6.5-3-16.5-4.5-30.5-4.5v-12.5h169v12.5c-13 0-24 2-32 5-8 3-17 9-26 17-6 5.5-20.5 22.5-44 51l-86.5 104.5z"/>
		<path id="Layer" class="s4" d="m2231 2639.5v12.5c-16.5 2.5-31.5 11.5-44.5 27-9.5 11.5-23.5 38-42.5 80l-158 352h-11.5l-157-366.5c-19-44-31.5-70-38-78-6.5-8-18.5-12.5-36.5-14.5v-12.5h220v12.5h-7.5q-30 0-40.5 7.5-7.5 5.3-7.5 15c0 4 1 9 2.5 14.5 2 5.5 8 20.5 18.5 45l98.5 229 90.5-204c11-24.5 17.5-41 20-49.5 2.5-8.5 3.5-15.5 3.5-21.5 0-7-2-13-5.5-18-3.5-5.5-9-9.5-16-12-9.5-3.5-22.5-6-38.5-6v-12.5h150.5z"/>
		<path id="Layer" class="s0" d="m324.5-683l88-168.5h130.5v6.5h-10.5c-9.5 0-17 1.5-23 4-4 2-7 5-9.5 9-1.5 3-2.5 11-2.5 24v168.5c0 13 1 21.5 2.5 24.5 2 3.5 5.5 6 11 8.5 5.5 2.5 12.5 3.5 21.5 3.5h10.5v6.5h-168.5v-6.5h10.5c9.5 0 17-1.5 23-4 4-2 7-5 9.5-9 2-3 2.5-11 2.5-24v-189.5l-123.5 233h-5.5l-125.5-231v180c0 12.5 0.5 20.5 1 23.5 2 6.5 6.5 11.5 13.5 15.5 7 4 17.5 6 32 6v6.5h-110.5v-6.5h3.5c7 0 14-1 20-3 6-2 11-4.5 14-8 3-3.5 5.5-8 7.5-14 0.5-1.5 0.5-8 0.5-19.5v-161.5c0-13-1-21.5-2.5-24.5-1.5-3.5-5.5-6-11-8.5-5.5-2.5-12.5-4-22-4h-10.5v-6.5h132l91 168.5z"/>
		<path id="Layer" fill-rule="evenodd" class="s0" d="m745.5-855c51-1.5 93 10.5 125 35.5 32 25 48 57 48 94.5q0 48.8-36 85.5c-31.5 32.5-76.5 49-134 49-58 0-102.5-15.5-134.5-46.5-25-24.5-37.5-54-37.5-87.5 0-38 16.5-69.5 48.5-94.5 32.5-25.5 72.5-37 120-35.5zm3 12c-29.5 0-51.5 12-67 36-12.5 19.5-18.5 48-18.5 84.5 0 43.5 9.5 76 29 96.5 13.5 14.5 32 22 56 22 16.5 0 29.5-3 40.5-9.5 14-8 24.5-21 32.5-38.5 8-17.5 11.5-40.5 11.5-69 0-34-4-59-12-76-8-17-18-28.5-30-35.5-12-7-26.5-10.5-42-10.5z"/>
		<path id="Layer" class="s0" d="m1063-851.5l158.5 157v-108.5c0-15.5-3-26-8.5-31.5-7.5-7.5-20.5-11-38.5-10.5v-6.5h106.5v6.5c-13.5 1.5-22.5 3-27.5 5.5-4.5 2-8 6-10.5 11-2.5 5-4 13.5-4 26v212.5h-8l-217-211.5v161.5c0 15 4.5 25 13 30 8.5 5 18.5 8 29.5 8h7.5v6.5h-115v-6.5c17.5 0 30-3 37-9 7-5.5 10.5-15.5 10.5-29v-179.5l-7.5-7c-7-7-13-12-18-14-5.5-2-13-3.5-22.5-3.5v-6.5h114.5z"/>
		<path id="Layer" class="s0" d="m1606.5-851.5v69h-8c-5-16-10.5-27.5-17-34q-9.8-10.5-25.5-16.5c-6-2.5-16.5-3.5-31.5-3.5h-24v197c0 13 1 21.5 2.5 24.5 1.5 3.5 5.5 6 10.5 8.5 5.5 2.5 12.5 3.5 21.5 3.5h10.5v6.5h-168.5v-6.5h10.5c9.5 0 17-1.5 22.5-4 4-2 7.5-5 9.5-9 2-3 2.5-11 2.5-24v-197h-24c-22 0-38 3.5-48 11-14 10-22.5 24.5-26.5 43.5h-8v-69h290z"/>
		<path id="Layer" fill-rule="evenodd" class="s0" d="m1795.5-669.5h-113l-14 25c-4.5 8.5-6.5 15.5-6.5 21 0 7.5 3.5 12.5 11 16 4 2 15 3.5 31.5 4.5v6.5h-107v-6.5c11.5-1.5 21-5.5 28.5-11.5 7.5-6.5 16.5-19.5 27.5-39l115-203.5h4.5l116 209.5c11 20.5 20 33 27.5 38.5 5.5 4 13 6.5 22.5 7v6.5h-156v-6.5h6.5c12.5 0 21-1.5 26.5-4 3.5-2 5.5-5 5.5-9 0-2.5-0.5-4.5-1.5-7-0.5-1-2.5-6-7-14.5l-17.5-32zm-7.5-14l-48-87-49 87z"/>
		<path id="Layer" class="s0" d="m1961.5-851.5h166v6.5h-8.5q-18.8 0-25.5 3c-4.5 2-8 5-10 8.5-2 3.5-3 13-3 27.5v125c0 23 2 38 6.5 45.5 4.5 7.5 11.5 13.5 21.5 18.5 10 5 22.5 7.5 38 7.5 17.5 0 32-3 44.5-9.5 12-6 21.5-15 27.5-25.5q9-16.5 9-57v-104c0-11.5-1.5-20-4.5-25-3-5-6.5-8.5-11.5-10.5q-10.5-4.5-30-4.5v-6.5h111v6.5h-6.5q-13.5 0-22.5 4.5c-6 3-10.5 7.5-13 13-2 4-3 11.5-3 22v97c0 30-2.5 51.5-7.5 65-5 13.5-17 25.5-36.5 36.5-19 11-45.5 17-79 17q-42 0-64.5-9c-20.5-8-35.5-18-44-31-8.5-12.5-13-29.5-13-50.5v-125c0-15-1-24-3-27.5-2-3.5-5.5-6.5-10.5-8.5-5-2-14.5-3-28-3z"/>
		<path id="Layer" fill-rule="evenodd" class="s0" d="m2523.5-730.5c31 5.5 52.5 12.5 65 20.5 18 11.5 27 26 27 44 0 19-10 35-29.5 47.5-24 15-59 22.5-104.5 22.5h-164v-6.5c15 0 25.5-1 31-3.5 5.5-2 9-5 11.5-8.5 2-3.5 3.5-12.5 3.5-26.5v-165.5c0-14-1-23-3.5-26.5-2-3.5-6-6.5-11.5-8.5-5.5-2-16-3-31-3v-6.5h155c37 0 63.5 2.5 78.5 8 15.5 5 27.5 13 36.5 23.5q13.5 15.8 13.5 33c0 12.5-5.5 23.5-17 33-11.5 9.5-31.5 17.5-60 23zm-86.5-5c22.5 0 39.5-2 50-6 10.5-4 19-10 24.5-17 6-7.5 8.5-17 8.5-28.5 0-11.5-3-21-8.5-28-5.5-7-14-13-24.5-16.5-10.5-3.5-27.5-5.5-50.5-5.5v102zm0 105c0 7 2 12 6.5 15.5 4.5 3.5 10.5 5 19 5 12.5 0 24-2 34.5-6.5q15.8-6.8 24-19.5c5.5-8.5 8.5-18 8.5-28.5 0-12-3-22.5-9.5-32-6.5-9.5-15.5-16-28-20-12.5-3.5-30.5-5.5-55-5.5z"/>
		<path id="Layer" fill-rule="evenodd" class="s0" d="m2840.5-669.5h-112.5l-14 25c-4.5 8.5-6.5 15.5-6.5 21 0 7.5 3.5 12.5 11 16q6.8 3 31.5 4.5v6.5h-107v-6.5c11.5-1.5 21-5.5 28.5-11.5 7.5-6.5 16.5-19.5 27.5-39l115-203.5h4.5l116.5 209.5c11 20.5 20 33 27.5 38.5 5.5 4 13 6.5 23 7v6.5h-155.5v-6.5h6.5c12.5 0 21.5-1.5 26.5-4 3.5-2 5-5 5-9 0-2.5-0.5-4.5-1.5-7-0.5-1-2.5-6-7-14.5l-17.5-32zm-7.5-14l-48-87-49 87z"/>
		<path id="Layer" class="s0" d="m3116.5-851.5l158.5 157v-108.5c0-15.5-3-26-8.5-31.5-7.5-7.5-20.5-11-38.5-10.5v-6.5h106.5v6.5c-13.5 1.5-22.5 3-27.5 5.5-4.5 2-8.5 6-11 11-2.5 5-4 13.5-4 26v212.5h-8l-217-211.5v161.5c0 15 4.5 25 13 30 8.5 5 18.5 8 29.5 8h8v6.5h-115v-6.5c17.5 0 30-3 37-9 7-5.5 10.5-15.5 10.5-29v-179.5l-7.5-7c-7-7-13-12-18-14-5-2-13-3.5-22.5-3.5v-6.5h114.5z"/>
		<path id="Layer" class="s0" d="m301.5-450v69h-6c-3.5-16-7.5-27-12-34-4.5-7-10.5-12.5-17.5-16.5-4.5-2.5-11.5-3.5-22-3.5h-16.5v196.5c0 13 0.5 21 2 24.5 1.5 3 3.5 6 7.5 8.5 3.5 2.5 8.5 3.5 15 3.5h7.5v6.5h-117v-6.5h7.5c6.5 0 11.5-1.5 15.5-4 3-2 5-5 6.5-9 1-3 2-11 2-23.5v-196.5h-16.5c-15 0-26 3.5-33 11-9.5 10-15.5 24.5-18 43h-6v-69z"/>
		<path id="Layer" fill-rule="evenodd" class="s0" d="m429-267.5h-78.5l-9.5 24.5c-3 8.5-4.5 15-4.5 20.5 0 7 2.5 12.5 7.5 16 3 2 10 3.5 22 4.5v6.5h-74v-6.5c8-1.5 14.5-5 19.5-11.5 5-6 11.5-19 19-38.5l79.5-203.5h3l80 209c7.5 20 14 32.5 19 37.5 3.5 4 9 6 16 7v6.5h-107.5v-6.5h4.5c8.5 0 14.5-1.5 18.5-4 2.5-2 3.5-5 3.5-8.5 0-2-0.5-4.5-1-7 0-1-2-6-5-14l-12-31.5zm-5.5-14l-33.5-88-34.5 88z"/>
		<path id="Layer" fill-rule="evenodd" class="s0" d="m621-312v72c0 13.5 1 22.5 2.5 26 1.5 3.5 4 6.5 8 8.5 4 2 11 3 21.5 3v6.5h-115v-6.5c10.5 0 17.5-1 21.5-3.5 3.5-2 6.5-5 8-8.5 1.5-3.5 2.5-12 2.5-25.5v-166.5c0-13.5-0.5-22-2.5-26-1.5-3.5-4-6.5-8-8.5-3.5-2-11-3-21.5-3v-6.5h104c27 0 47 2 59.5 6.5 12.5 4 22.5 12 30.5 23.5q12 17.3 12 40.5c0 19-6 34.5-17.5 46.5-7.5 8-18 13.5-31.5 17.5l53.5 86c7 11 12 18.5 15 21 4.5 4 9.5 6 15.5 6.5v6.5h-70l-72-116.5h-15zm0-14.5h9.5c15.5 0 27-1.5 34.5-5 7.5-3 13.5-9 18-17 4.5-8.5 6.5-19 6.5-32.5 0-19-4-33.5-12-42.5-8-9-21-13.5-38.5-13.5h-18z"/>
		<path id="Layer" class="s0" d="m858.5-450l109.5 156v-107.5c0-15.5-2-26-5.5-31.5-5.5-7.5-14-11-26.5-10.5v-6.5h73.5v6.5c-9.5 1.5-16 3-19 5.5-3.5 2-6 6-7.5 11-1.5 5-2.5 13.5-2.5 25.5v211.5h-5.5l-150.5-211v162.5c0 14.5 3 24 9 29 6 5 12.5 7.5 20.5 7.5h5v6.5h-79.5v-6.5c12.5 0 21-3 25.5-8.5 5-5.5 7-15 7-28.5v-179.5l-5-7.5c-5-7-9-12-12.5-14-3.5-2-9-3.5-15.5-3.5v-6.5h80z"/>
		<path id="Layer" class="s0" d="m1194-435.5v103.5h4.5c14.5 0 24.5-5 31-15 6.5-10 10.5-25 12.5-45h6v133.5h-6c-1.5-14.5-4-26.5-8.5-36-4.5-9.5-9.5-15.5-15-19-5.5-3-14-5-24.5-5v72c0 14 0.5 22.5 1.5 26q1.5 4.5 6 7.5c3 2 7.5 3 14 3h13.5c21 0 37.5-5.5 50-16.5 12.5-11 21.5-28 27-50.5h6l-10 81h-193v-6.5h7.5c6.5 0 12-1.5 15.5-4 3-1.5 5-5 6.5-9 1-3 2-11 2-23.5v-168c0-11.5-0.5-18.5-1-21.5-1-4.5-3-8-6-10-4-3.5-10-5-17-5h-7.5v-6.5h186.5v75h-6q-4.5-27.8-13.5-39c-6-8-14-14-24.5-17.5-6-2.5-17.5-3.5-34.5-3.5h-23z"/>
		<path id="Layer" class="s0" d="m1539.5-450v69h-6c-3.5-16-7.5-27-11.5-34-4.5-7-10-12.5-17.5-16.5-4-2.5-11.5-3.5-22-3.5h-16.5v196.5c0 13 0.5 21 2 24.5 1.5 3 3.5 6 7.5 8.5 3.5 2.5 8.5 3.5 15 3.5h7.5v6.5h-117v-6.5h7.5c6.5 0 11.5-1.5 15.5-4 3-2 5-5 6.5-9 1.5-3 2-11 2-23.5v-196.5h-16.5c-15.5 0-26 3.5-33 11-10 10-16 24.5-18.5 43h-6v-69z"/>
		<path id="Layer" class="s0" d="m1861.5-456v89.5h-6c-7.5-24.5-18.5-43.5-33-56.5q-21.8-19.5-48-19.5c-16.5 0-30.5 5.5-41.5 16-11 11-19 25.5-23.5 45-4.5 19-7 39-7 59q0 36.8 7.5 64.5 7.5 27.8 24 40.5c11 8.5 24.5 13 40 13 5.5 0 10.5-0.5 16.5-2 5.5-1 11.5-3 17.5-5.5v-52.5c0-10-0.5-16.5-2-19.5-1.5-3-3.5-5.5-7.5-8-4-2.5-8.5-3.5-13.5-3.5h-6v-6.5h109v6.5c-8.5 0.5-14 2-17.5 4-3.5 2-6 5-7.5 9.5-1 2.5-1.5 8-1.5 17.5v52.5c-14 7-29 12.5-44.5 16-15.5 3.5-31.5 5.5-48 5.5-21 0-38.5-3.5-52.5-10-14-6.5-26.5-15-37-26-10.5-10.5-19-22.5-25-36-7.5-17.5-11.5-36.5-11.5-58 0-38 12-70.5 35.5-97 23.5-26.5 53.5-39.5 89-39.5q16.5 0 30 3c5 1 12.5 4 23.5 8.5 11 4.5 17.5 7 19 7 3 0 6-1.5 8.5-4 2.5-2.5 5-7.5 7-15h6z"/>
		<path id="Layer" fill-rule="evenodd" class="s0" d="m2032-267.5h-78.5l-9.5 24.5c-3 8.5-4.5 15-4.5 20.5 0 7 2.5 12.5 7.5 16 3 2 10 3.5 22 4.5v6.5h-74v-6.5c8-1.5 14.5-5 19.5-11.5 5-6 11.5-19 19-38.5l79.5-203.5h3l80 209c7.5 20 14 32.5 19 37.5 4 4 9 6 16 7v6.5h-107.5v-6.5h4.5c8.5 0 15-1.5 18.5-4 2.5-2 3.5-5 3.5-8.5 0-2-0.5-4.5-1-7 0-1-2-6-5-14l-12-31.5zm-5.5-14l-33.5-88-34.5 88z"/>
		<path id="Layer" fill-rule="evenodd" class="s0" d="m2224.5-312v72c0 13.5 0.5 22.5 2.5 26 1.5 3.5 4 6.5 8 8.5 4 2 11 3 21.5 3v6.5h-115.5v-6.5c10.5 0 17.5-1 21.5-3.5 3.5-2 6.5-5 8-8.5 1.5-3.5 2.5-12 2.5-25.5v-166.5c0-13.5-1-22-2.5-26-1.5-3.5-4-6.5-8-8.5-4-2-11-3-21.5-3v-6.5h104c27 0 47 2 59.5 6.5 12.5 4 22.5 12 30.5 23.5q12 17.3 12 40.5c0 19-6 34.5-17.5 46.5-7.5 8-18 13.5-31.5 17.5l53.5 86c7 11 12 18.5 15 21 4.5 4 9.5 6 15.5 6.5v6.5h-70l-72-116.5h-14.5zm0-124.5v110h9.5c15.5 0 27-1.5 34.5-5 7.5-3 13.5-9 18-17 4.5-8.5 6.5-19 6.5-32.5 0-19-4-33.5-12-42.5-8-9-21-13.5-38.5-13.5h-17.5z"/>
		<path id="Layer" fill-rule="evenodd" class="s0" d="m2508-454c35.5-1.5 64.5 10.5 86.5 35.5 22 25 33.5 56.5 33.5 94.5 0 32.5-8.5 61-25 85-22 32.5-53 49-93 49q-60 0-93-46.5c-17.5-24.5-26-53.5-26-87.5 0-38 11.5-69.5 34-94.5 22.5-25.5 50-37 83-35.5zm2 12c-20.5 0-36 12-46.5 35.5-8.5 19.5-13 47.5-13 84 0 43.5 6.5 75.5 20 96.5 9.5 14.5 22 22 39 22 11 0 20.5-3 28-9.5 9.5-8 17-21 22.5-38.5 5.5-17.5 8-40.5 8-69 0-33.5-2.5-59-8-75.5-5.5-16.5-12.5-28.5-21-35.5-8.5-7-18-10.5-29-10.5z"/>
		<path id="Layer" class="s0" d="m2724-450l109.5 156v-107.5c0-15.5-2-26-5.5-31.5-5.5-7.5-14-11-26.5-10.5v-6.5h73.5v6.5c-9.5 1.5-15.5 3-19 5.5-3.5 2-6 6-7.5 11-2 5-2.5 13.5-2.5 25.5v211.5h-5.5l-150.5-211v162.5c0 14.5 3 24 9 29 6 5 12.5 7.5 20.5 7.5h5v6.5h-79.5v-6.5c12 0 20.5-3 25.5-8.5 5-5.5 7-15 7-28.5v-179.5l-5.5-7.5c-4.5-7-9-12-12.5-14-3.5-2-8.5-3.5-15.5-3.5v-6.5z"/>
		<path id="Layer" class="s0" d="m2967-450l109.5 156v-107.5q0-23.3-6-31.5c-5.5-7.5-14-11-26.5-10.5v-6.5h73.5v6.5c-9.5 1.5-15.5 3-19 5.5-3 2-5.5 6-7.5 11-2 5-2.5 13.5-2.5 25.5v211.5h-5.5l-150.5-211v162.5c0 14.5 3 24 9 29 6 5 13 7.5 20.5 7.5h5.5v6.5h-79.5v-6.5c12 0 21-3 25.5-8.5q7.5-8.3 7.5-28.5v-179.5l-5-7.5c-4.5-7-9-12-12.5-14-3.5-2-9-3.5-15.5-3.5v-6.5h80z"/>
		<path id="Layer" class="s0" d="m3218-435.5v103.5h4.5c14.5 0 24.5-5 31-15 6.5-10 10.5-25 12.5-45h6v133.5h-6c-1.5-14.5-4-26.5-8.5-36-4-9.5-9-15.5-15-19-5.5-3-14-5-24.5-5v72c0 14 0.5 22.5 1.5 26q1.5 4.5 6 7.5c3 2 7.5 3 14 3h13c20.5 0 37.5-5.5 50-16.5 12.5-11 21.5-28 27-50.5h6l-10 81h-193v-6.5h7.5c6.5 0 12-1.5 15.5-4 3-1.5 5-5 6.5-9 1.5-3 2-11 2-23.5v-168c0-11.5 0-18.5-0.5-21.5-1-4.5-3-8-6-10-4-3.5-10-5-17-5h-7.5v-6.5h186.5v75h-6q-4.5-27.8-13.5-39c-6-8-14-14-24.5-17.5-6-2.5-17.5-3.5-34.5-3.5h-23z"/>
	</g>
</svg>